<svg width="15" height="10" viewBox="0 0 15 10" fill="none" xmlns="http://www.w3.org/2000/svg">
<g clip-path="url(#clip0_1215:67)">
<path d="M0.00494121 4.95817C0.00494121 3.93028 -0.00102552 2.90239 0.00593566 1.8745C0.0138913 0.683267 0.673214 0.0229089 1.84965 0.0189248C2.67704 0.0159368 3.50542 0.0348611 4.33181 0.0119527C4.7992 4.97326e-07 5.10649 0.183267 5.35709 0.56773C6.18846 1.84363 7.03175 3.11255 7.88897 4.37251C8.17836 4.79781 8.19228 5.1763 7.9019 5.60558C7.02877 6.89343 6.16956 8.19124 5.31234 9.49104C5.09157 9.8257 4.80716 9.98705 4.40341 9.98207C3.5263 9.97112 2.64919 9.98506 1.77209 9.97709C0.715976 9.96713 0.0268192 9.29881 0.00991348 8.24004C-0.00898115 7.14642 0.00494121 6.0518 0.00494121 4.95817Z" fill="#47C77D"/>
<path d="M9.685 0.0189244C10.1484 0.0189244 10.6208 -0.0338644 11.0733 0.0378487C11.3666 0.0846615 11.7286 0.243028 11.8927 0.472112C12.6455 1.52092 13.3625 2.59861 14.0467 3.69422C14.5837 4.55478 14.5747 5.46813 14.0308 6.32769C13.3486 7.40538 12.6485 8.4741 11.9016 9.50697C11.7286 9.74602 11.3438 9.93924 11.0434 9.95817C10.1365 10.0169 9.22159 10.0129 8.31365 9.96016C8.02625 9.94323 7.68516 9.75797 7.48925 9.54084C7.2287 9.25299 7.36196 8.89044 7.57079 8.57769C8.21719 7.61454 8.84469 6.63845 9.50799 5.68725C9.83715 5.21514 9.85207 4.80378 9.51893 4.3247C8.86458 3.38745 8.251 2.42231 7.61157 1.4751C7.39378 1.15239 7.26052 0.829681 7.46638 0.459164C7.66825 0.0956177 8.0004 0.00199216 8.3942 0.0159364C8.82281 0.0298806 9.2544 0.0189244 9.685 0.0189244Z" fill="#47C77D"/>
</g>
<defs>
<clipPath id="clip0_1215:67">
<rect width="14.4444" height="10" fill="white"/>
</clipPath>
</defs>
</svg>
