<svg width="50" height="50" viewBox="0 0 50 50" fill="none" xmlns="http://www.w3.org/2000/svg">
<g clip-path="url(#clip0_948_207)">
<path d="M40.2344 50C39.0674 49.6016 38.6514 48.7715 38.6582 47.5625C38.6895 42.6318 38.6709 37.7012 38.6719 32.7705C38.6719 31.2168 39.4199 30.4707 40.9736 30.4688C41.6738 30.4678 42.374 30.4512 43.0732 30.4727C44.0596 30.5029 45.0459 30.5615 46.0781 30.6094C46.0664 30.6592 46.0918 30.6016 46.0918 30.5449C46.0654 28.1055 46.1279 25.6602 45.9863 23.2266C45.7754 19.5781 44.5547 16.2324 42.4922 13.2217C39.7666 9.24414 36.1426 6.38477 31.5195 4.95508C24.7305 2.85547 18.3594 3.81543 12.5752 7.99512C8.21777 11.1436 5.47363 15.4062 4.375 20.6738C4.09082 22.0342 3.98047 23.4434 3.92773 24.835C3.85352 26.7832 3.90918 28.7363 3.90918 30.7266C5.6709 30.2949 7.42774 30.5088 9.17383 30.4766C10.5332 30.4512 11.3262 31.2646 11.3271 32.625C11.3301 37.6045 11.3105 42.584 11.3418 47.5635C11.3496 48.7725 10.9326 49.6025 9.76563 50.001C8.1709 50.001 6.5752 50.001 4.98047 50.001C4.90625 49.9727 4.83496 49.9316 4.75781 49.917C2.35938 49.4414 0.829102 48.0293 0.171875 45.6729C0.112305 45.4551 0.0576172 45.2373 0 45.0195C0 37.8584 0 30.6963 0 23.5352C0.0283203 23.3945 0.0732422 23.2559 0.0830078 23.1143C0.327148 19.627 1.24707 16.3213 2.93359 13.2656C6.82031 6.2207 12.7295 1.91113 20.6445 0.394531C21.5977 0.210938 22.5713 0.128906 23.5352 0C24.5117 0 25.4883 0 26.4648 0C26.5908 0.0273438 26.7148 0.0712891 26.8418 0.0800781C30.3467 0.317383 33.668 1.24023 36.7383 2.93555C43.7822 6.82422 48.0908 12.7334 49.6055 20.6494C49.7881 21.6016 49.8701 22.5732 49.999 23.5352C49.999 30.6963 49.999 37.8584 49.999 45.0195C49.9707 45.0938 49.9297 45.166 49.915 45.2432C49.4316 47.6865 47.9727 49.2129 45.5772 49.8574C45.3916 49.9072 45.2051 49.9521 45.0195 49.999C43.4248 50 41.8291 50 40.2344 50Z" fill="white"/>
</g>
<defs>
<clipPath id="clip0_948_207">
<rect width="50" height="50" fill="white"/>
</clipPath>
</defs>
</svg>
