<svg width="40" height="40" viewBox="0 0 40 40" fill="none" xmlns="http://www.w3.org/2000/svg">
<g filter="url(#filter0_d_21_4)">
<path d="M26.2769 16.6154L16.1231 22.4615C16.0295 22.573 15.8995 22.6477 15.7561 22.6724C15.6127 22.697 15.4652 22.6701 15.3397 22.5963C15.2143 22.5225 15.1191 22.4067 15.071 22.2693C15.0229 22.132 15.025 21.9821 15.0769 21.8461V10.1538C15.025 10.0179 15.0229 9.86798 15.071 9.73064C15.1191 9.59331 15.2143 9.47747 15.3397 9.40369C15.4652 9.32991 15.6127 9.30296 15.7561 9.32764C15.8995 9.35231 16.0295 9.427 16.1231 9.53846L26.2769 15.3846C26.3948 15.4386 26.4946 15.5253 26.5646 15.6344C26.6346 15.7435 26.6718 15.8704 26.6718 16C26.6718 16.1296 26.6346 16.2565 26.5646 16.3656C26.4946 16.4747 26.3948 16.5614 26.2769 16.6154ZM36 16C36 19.1645 35.0616 22.2579 33.3035 24.8891C31.5454 27.5203 29.0466 29.5711 26.1229 30.7821C23.1993 31.9931 19.9823 32.3099 16.8786 31.6926C13.7749 31.0752 10.9239 29.5513 8.6863 27.3137C6.44866 25.0761 4.92481 22.2251 4.30744 19.1214C3.69008 16.0177 4.00693 12.8007 5.21793 9.87706C6.42894 6.95344 8.4797 4.45459 11.1109 2.69649C13.7421 0.938383 16.8355 0 20 0C24.2435 0 28.3131 1.68571 31.3137 4.68629C34.3143 7.68687 36 11.7565 36 16ZM33.5385 16C33.5385 13.3223 32.7444 10.7048 31.2568 8.47843C29.7692 6.25204 27.6548 4.51679 25.1809 3.49209C22.7071 2.4674 19.985 2.19929 17.3588 2.72168C14.7326 3.24406 12.3203 4.53347 10.4269 6.42686C8.53348 8.32025 7.24407 10.7326 6.72168 13.3588C6.1993 15.985 6.4674 18.7071 7.4921 21.1809C8.51679 23.6548 10.2521 25.7692 12.4784 27.2568C14.7048 28.7444 17.3223 29.5385 20 29.5385C23.5906 29.5385 27.0342 28.1121 29.5731 25.5731C32.1121 23.0342 33.5385 19.5906 33.5385 16Z" fill="#FAFAFA"/>
</g>
<defs>
<filter id="filter0_d_21_4" x="0" y="0" width="40" height="40" filterUnits="userSpaceOnUse" color-interpolation-filters="sRGB">
<feFlood flood-opacity="0" result="BackgroundImageFix"/>
<feColorMatrix in="SourceAlpha" type="matrix" values="0 0 0 0 0 0 0 0 0 0 0 0 0 0 0 0 0 0 127 0" result="hardAlpha"/>
<feOffset dy="4"/>
<feGaussianBlur stdDeviation="2"/>
<feColorMatrix type="matrix" values="0 0 0 0 0 0 0 0 0 0 0 0 0 0 0 0 0 0 0.25 0"/>
<feBlend mode="normal" in2="BackgroundImageFix" result="effect1_dropShadow_21_4"/>
<feBlend mode="normal" in="SourceGraphic" in2="effect1_dropShadow_21_4" result="shape"/>
</filter>
</defs>
</svg>
