<svg width="50" height="50" viewBox="0 0 50 50" fill="none" xmlns="http://www.w3.org/2000/svg">
<path d="M26.4578 50C25.5125 50 24.5715 50 23.6262 50C23.4679 49.9692 23.3096 49.9384 23.1513 49.9121C21.885 49.7186 20.5967 49.6131 19.3479 49.3273C13.9924 48.0917 9.49875 45.37 5.96799 41.1621C1.01702 35.2658 -0.842896 28.4505 0.34868 20.857C1.21048 15.3564 3.74313 10.6692 7.80152 6.86145C13.5747 1.4444 20.4648 -0.745286 28.2957 0.222045C33.7787 0.899177 38.5143 3.26914 42.4627 7.14286C46.3057 10.911 48.702 15.4619 49.6166 20.7778C49.7793 21.7188 49.8716 22.6729 49.9947 23.6227C49.9947 24.5328 49.9947 25.4474 49.9947 26.3576C49.9639 26.5466 49.9332 26.7357 49.9024 26.9248C49.7001 28.2263 49.5902 29.5454 49.2868 30.8205C46.9125 40.7884 38.7077 48.2544 28.5684 49.7274C27.8692 49.8285 27.1613 49.9077 26.4578 50ZM5.25129 24.823C5.19852 35.8902 14.1068 44.7281 24.9936 44.7281C35.8365 44.7324 44.714 35.8902 44.7404 25.1792C44.7667 14.0988 35.8805 5.26096 25.0156 5.24777C14.1463 5.23458 5.2293 14.0857 5.25129 24.823Z" fill="white"/>
<path d="M19.2823 24.9637C19.2823 22.4091 19.278 19.8544 19.2867 17.2954C19.2911 16.0907 19.8891 15.3256 20.9488 15.2904C21.3533 15.2772 21.837 15.4179 22.1711 15.6554C25.8338 18.254 29.4833 20.8701 33.1196 23.5039C34.2232 24.3042 34.2232 25.676 33.124 26.4719C29.4877 29.1056 25.8338 31.713 22.1843 34.3292C21.5776 34.7645 20.9224 34.8569 20.2541 34.5139C19.5418 34.149 19.2867 33.507 19.2867 32.7331C19.2867 30.1433 19.2823 27.5535 19.2823 24.9637Z" fill="white"/>
</svg>
