<svg width="50" height="46" viewBox="0 0 50 46" fill="none" xmlns="http://www.w3.org/2000/svg">
<path d="M49.9998 4.49385C49.9998 12.603 49.9998 20.7121 49.9998 28.8222C49.9753 28.8624 49.937 28.9007 49.9282 28.9448C49.327 31.7606 47.3821 33.3397 44.4937 33.3407C34.268 33.3426 24.0424 33.3426 13.8167 33.3387C13.4273 33.3387 13.0311 33.3338 12.6496 33.2642C10.0132 32.7826 8.30764 30.6651 8.30568 27.8718C8.30175 20.4139 8.30175 12.957 8.30568 5.49915C8.30764 2.2351 10.5399 0.00185619 13.7912 0.000875411C17.6015 -0.00108616 21.4119 0.000875411 25.2213 0.000875411C31.7013 0.000875411 38.1823 -0.00206694 44.6624 0.00283698C47.0565 0.00479855 49.0239 1.41222 49.7418 3.61997C49.837 3.90734 49.9145 4.20255 49.9998 4.49385ZM45.7177 19.8696C45.753 19.8549 45.7883 19.8402 45.8236 19.8264C45.8236 19.6813 45.8236 19.5361 45.8236 19.391C45.8236 14.7676 45.8246 10.1441 45.8226 5.52073C45.8226 4.49973 45.4999 4.17705 44.4809 4.17705C34.2739 4.17607 24.0669 4.17607 13.8599 4.17705C12.8085 4.17705 12.4828 4.50071 12.4828 5.54034C12.4828 11.7919 12.4828 18.0424 12.4828 24.2939C12.4828 24.4489 12.4828 24.6038 12.4828 24.8539C12.6868 24.6627 12.8153 24.5489 12.9369 24.4273C14.6298 22.7364 16.3206 21.0426 18.0145 19.3517C19.7495 17.6197 21.8787 17.6128 23.6128 19.3419C24.3729 20.1001 25.1144 20.8749 25.897 21.6762C26.1138 21.4202 26.2815 21.2241 26.4463 21.0259C28.8109 18.1876 31.1687 15.3423 33.5432 12.5118C35.186 10.5531 37.688 10.5394 39.3691 12.4686C40.4813 13.7446 41.5739 15.0373 42.6763 16.3231C43.6894 17.5069 44.7036 18.6878 45.7177 19.8696Z" fill="white"/>
<path d="M43.2581 36.4675C42.9688 37.3934 42.7 38.2575 42.4303 39.1205C42.0812 40.2367 41.732 41.3538 41.3809 42.4699C40.5796 45.0121 38.1541 46.3578 35.5746 45.6692C28.4159 43.7577 21.2591 41.8354 14.1014 39.9189C10.6166 38.9862 7.13093 38.0564 3.6462 37.1237C0.849008 36.3753 -0.59863 33.7704 0.234056 30.9889C1.80527 25.7436 3.37649 20.4974 4.94868 15.2522C4.9889 15.1178 5.03401 14.9854 5.17721 14.8579C5.17721 15.0227 5.17721 15.1884 5.17721 15.3532C5.17721 19.7157 5.14778 24.0792 5.18702 28.4408C5.21546 31.5675 6.57973 33.9763 9.32298 35.5358C10.5529 36.2351 11.9005 36.4744 13.3128 36.4724C23.0638 36.4616 32.8147 36.4665 42.5657 36.4665C42.7746 36.4675 42.9815 36.4675 43.2581 36.4675Z" fill="white"/>
<path d="M18.7487 14.5773C16.4527 14.5842 14.5843 12.7413 14.5607 10.4463C14.5382 8.15614 16.4399 6.2495 18.7428 6.25342C21.028 6.25735 22.9013 8.13064 22.9053 10.4159C22.9111 12.7001 21.0418 14.5705 18.7487 14.5773Z" fill="white"/>
</svg>
