<svg width="19" height="19" viewBox="0 0 19 19" fill="none" xmlns="http://www.w3.org/2000/svg">
<path fill-rule="evenodd" clip-rule="evenodd" d="M18.8127 18.81C18.5597 19.0633 18.1378 19.0633 17.8637 18.81L13.4136 14.3556C12.0005 15.5589 10.1656 16.2978 8.14094 16.2978C3.64866 16.2978 0 12.6456 0 8.14889C0 3.65222 3.64866 0 8.14094 0C12.6332 0 16.2819 3.65222 16.2819 8.14889C16.2819 10.1544 15.5437 11.9911 14.3416 13.4267L18.7917 17.8811C19.0658 18.1133 19.0658 18.5356 18.8127 18.81ZM14.9532 8.14889C14.9532 4.39111 11.9161 1.35111 8.16203 1.35111C4.40792 1.35111 1.37088 4.39111 1.37088 8.14889C1.37088 11.9067 4.40792 14.9467 8.16203 14.9467C11.8951 14.9467 14.9532 11.8856 14.9532 8.14889Z" fill="#7090C2"/>
</svg>
