<svg width="23" height="23" viewBox="0 0 23 23" fill="none" xmlns="http://www.w3.org/2000/svg">
<path d="M19.6401 5.2711C18.9963 5.27283 18.3665 5.4599 17.8262 5.80994C17.2858 6.15999 16.8577 6.65821 16.593 7.24504C16.3283 7.83187 16.2383 8.48249 16.3336 9.11914C16.4289 9.75579 16.7056 10.3515 17.1305 10.8351L14.4964 13.9332C13.76 13.3899 12.8887 13.0587 11.9773 12.9755V6.66929C12.8162 6.54823 13.5781 6.11398 14.1096 5.45393C14.6412 4.79389 14.9029 3.95704 14.8422 3.1118C14.7815 2.26657 14.4029 1.47569 13.7825 0.898332C13.1621 0.320976 12.3459 0 11.4984 0C10.6508 0 9.83466 0.320976 9.21425 0.898332C8.59383 1.47569 8.21517 2.26657 8.15447 3.1118C8.09378 3.95704 8.35555 4.79389 8.8871 5.45393C9.41866 6.11398 10.1805 6.54823 11.0194 6.66929V12.9564C9.96393 13.0589 8.96802 13.4931 8.1746 14.1966L6.03859 12.061C6.54565 11.3821 6.77677 10.5365 6.68547 9.69419C6.59417 8.85188 6.18721 8.07539 5.54647 7.52093C4.90572 6.96648 4.07874 6.67519 3.23188 6.70567C2.38502 6.73615 1.58113 7.08614 0.981924 7.68523C0.382718 8.28431 0.0326592 9.08805 0.00217226 9.93474C-0.0283147 10.7814 0.263032 11.6083 0.8176 12.2489C1.37217 12.8895 2.14881 13.2964 2.99128 13.3877C3.83375 13.4789 4.67955 13.2479 5.35851 12.7409L7.51847 14.9004C6.83775 15.7751 6.46862 16.8519 6.46962 17.9602C6.46766 18.7783 6.66539 19.5845 7.04567 20.3089C7.42595 21.0332 7.97727 21.6539 8.65182 22.117C9.32636 22.5801 10.1037 22.8716 10.9165 22.9662C11.7293 23.0609 12.5528 22.9558 13.3158 22.6602C14.0787 22.3645 14.758 21.8872 15.2946 21.2696C15.8312 20.652 16.209 19.9128 16.3952 19.1162C16.5814 18.3195 16.5703 17.4895 16.3629 16.6981C16.1556 15.9067 15.7582 15.1779 15.2053 14.5748L17.8585 11.4576C18.2984 11.7351 18.7968 11.9065 19.3143 11.9582C19.8318 12.0098 20.3543 11.9404 20.8404 11.7554C21.3264 11.5704 21.7628 11.2748 22.1149 10.8921C22.467 10.5094 22.7252 10.05 22.8691 9.55032C23.013 9.05062 23.0387 8.5243 22.944 8.01298C22.8494 7.50166 22.637 7.01937 22.3238 6.60425C22.0106 6.18913 21.605 5.85257 21.1392 5.62119C20.6735 5.38981 20.1602 5.26995 19.6401 5.2711ZM3.35659 12.4536C2.88298 12.4536 2.42 12.3132 2.0262 12.0501C1.63241 11.787 1.32548 11.4131 1.14424 10.9756C0.962993 10.5382 0.915571 10.0568 1.00797 9.59235C1.10037 9.12793 1.32843 8.70133 1.66333 8.3665C1.99823 8.03167 2.42491 7.80365 2.88942 7.71127C3.35394 7.61889 3.83542 7.6663 4.27298 7.84751C4.71054 8.02872 5.08453 8.33558 5.34766 8.7293C5.61079 9.12302 5.75123 9.58591 5.75123 10.0594C5.75123 10.3738 5.68929 10.6852 5.56895 10.9756C5.44861 11.2661 5.27222 11.53 5.04986 11.7524C4.82749 11.9747 4.56351 12.151 4.27298 12.2714C3.98245 12.3917 3.67106 12.4536 3.35659 12.4536ZM9.10372 3.35576C9.10372 2.88224 9.24416 2.41935 9.50729 2.02563C9.77042 1.63192 10.1444 1.32505 10.582 1.14384C11.0195 0.962631 11.501 0.915219 11.9655 1.0076C12.43 1.09998 12.8567 1.328 13.1916 1.66283C13.5265 1.99766 13.7546 2.42426 13.847 2.88868C13.9394 3.35311 13.892 3.83449 13.7107 4.27197C13.5295 4.70945 13.2225 5.08336 12.8287 5.34644C12.435 5.60951 11.972 5.74993 11.4984 5.74993C10.8633 5.74993 10.2542 5.49769 9.80509 5.04869C9.35601 4.5997 9.10372 3.99073 9.10372 3.35576ZM15.5692 17.9602C15.5692 18.7652 15.3305 19.5521 14.8832 20.2214C14.4359 20.8907 13.8001 21.4124 13.0562 21.7204C12.3124 22.0285 11.4938 22.1091 10.7042 21.9521C9.91449 21.795 9.18913 21.4074 8.61981 20.8382C8.05049 20.269 7.66277 19.5437 7.5057 18.7542C7.34862 17.9647 7.42924 17.1463 7.73735 16.4026C8.04547 15.6589 8.56724 15.0233 9.2367 14.576C9.90615 14.1288 10.6932 13.8901 11.4984 13.8901C12.5776 13.8914 13.6123 14.3206 14.3755 15.0836C15.1387 15.8466 15.568 16.8811 15.5692 17.9602ZM19.6401 11.0171C19.1665 11.0171 18.7035 10.8767 18.3097 10.6136C17.9159 10.3505 17.609 9.97661 17.4278 9.53914C17.2465 9.10166 17.1991 8.62027 17.2915 8.15585C17.3839 7.69143 17.612 7.26483 17.9469 6.93C18.2818 6.59517 18.7084 6.36715 19.173 6.27477C19.6375 6.18239 20.1189 6.2298 20.5565 6.41101C20.9941 6.59222 21.3681 6.89908 21.6312 7.2928C21.8943 7.68652 22.0348 8.14941 22.0348 8.62293C22.0348 8.93734 21.9728 9.24866 21.8525 9.53914C21.7321 9.82961 21.5557 10.0935 21.3334 10.3159C21.111 10.5382 20.847 10.7145 20.5565 10.8349C20.266 10.9552 19.9546 11.0171 19.6401 11.0171Z" fill="#7090C2"/>
</svg>
