<svg width="25" height="25" viewBox="0 0 25 25" fill="none" xmlns="http://www.w3.org/2000/svg">
<path d="M12.485 25C19.3898 25.006 24.988 19.4198 25 12.515C25.012 5.61018 19.4138 0.0120067 12.515 1.9216e-05C5.61617 -0.0119683 0.0060141 5.5862 2.03442e-05 12.485C-0.00597341 15.8056 1.31265 18.9883 3.66221 21.3378C5.99977 23.6874 9.17646 25 12.485 25ZM12.485 1.28268C18.6945 1.27669 23.7353 6.31145 23.7413 12.521C23.7473 18.7305 18.7125 23.7713 12.503 23.7773C6.29346 23.7773 1.25272 18.7485 1.24672 12.539C1.24672 9.55407 2.42749 6.68906 4.54329 4.57326C6.6471 2.46345 9.50612 1.27669 12.485 1.28268Z" fill="#7090C2"/>
<path d="M16.9692 9H9.03077C8.49218 9 7.97564 9.20603 7.5948 9.57277C7.21396 9.93951 7 10.4369 7 10.9556V15.0444C7 15.5631 7.21396 16.0605 7.5948 16.4272C7.97564 16.794 8.49218 17 9.03077 17H16.9692C17.5078 17 18.0244 16.794 18.4052 16.4272C18.786 16.0605 19 15.5631 19 15.0444V10.9556C19 10.4369 18.786 9.93951 18.4052 9.57277C18.0244 9.20603 17.5078 9 16.9692 9ZM13.5077 13.8889L11.7077 14.7778V11.2222L13.5077 12.1111L15.3077 13L13.5077 13.8889Z" fill="#7090C2"/>
</svg>
