<svg width="24" height="23" viewBox="0 0 24 23" fill="none" xmlns="http://www.w3.org/2000/svg">
<path d="M22.3987 22.6C22.1112 22.6 21.8524 22.5137 21.6224 22.37L15.5267 18.2583H3.1341C1.40891 18.2583 0 16.8494 0 15.1242V3.1341C0 1.40891 1.40891 0 3.1341 0H20.6735C22.3987 0 23.8076 1.40891 23.8076 3.1341V21.2199C23.8076 21.7374 23.5201 22.2262 23.0601 22.4562C22.8588 22.5713 22.6288 22.6 22.3987 22.6ZM3.1341 1.66768C2.32901 1.66768 1.66768 2.32901 1.66768 3.1341V15.1242C1.66768 15.9293 2.32901 16.5906 3.1341 16.5906H16.0443L22.14 20.7023V3.1341C22.14 2.32901 21.4786 1.66768 20.6735 1.66768H3.1341Z" fill="#7090C2"/>
</svg>
