<svg width="25" height="25" viewBox="0 0 25 25" fill="none" xmlns="http://www.w3.org/2000/svg">
<g clip-path="url(#clip0_85:24)">
<path d="M0.982275 7.63494C1.61179 6.14636 2.51289 4.80955 3.66062 3.66169C4.80835 2.51382 6.14504 1.61252 7.63357 0.982837C9.17495 0.330762 10.812 9.76563e-05 12.5 0C14.1871 0 15.8241 0.330566 17.3655 0.982495C18.854 1.61206 20.1907 2.51323 21.3385 3.66096C22.4863 4.80869 23.3875 6.14536 24.0172 7.63381C24.6692 9.17515 24.9999 10.8121 25 12.4993C25.0001 14.1865 24.6696 15.8236 24.0177 17.3651C23.3882 18.8537 22.4871 20.1905 21.3393 21.3383C20.1916 22.4862 18.8549 23.3875 17.3664 24.0172C15.825 24.6692 14.1879 24.9999 12.5001 25H12.4999C10.8128 25 9.17583 24.6695 7.63445 24.0175C6.14595 23.388 4.80925 22.4868 3.66147 21.3391C2.5137 20.1914 1.61243 18.8547 0.982765 17.3662C0.330713 15.8249 7.43866e-05 14.1879 -2.28882e-05 12.5008C-9.72748e-05 10.8135 0.330397 9.17642 0.982275 7.63494ZM12.4999 23.8361H12.5006C15.5286 23.836 18.3753 22.6566 20.5163 20.5154C22.6573 18.3741 23.8363 15.5273 23.8361 12.4993C23.8358 6.24895 18.7504 1.16389 12.4993 1.16389C9.47134 1.16406 6.62466 2.34338 4.48369 4.48462C2.3427 6.62588 1.16372 9.47268 1.16389 12.5007C1.16423 18.751 6.24956 23.8361 12.4999 23.8361Z" fill="#7090C2"/>
<path d="M16.6626 15.9607C14.7749 15.9607 13.2446 14.4304 13.2446 12.5427C13.2446 10.655 14.7749 9.12476 16.6626 9.12476C18.5503 9.12476 20.0806 10.655 20.0806 12.5427C20.0806 14.4304 18.5503 15.9607 16.6626 15.9607Z" fill="#7090C2"/>
<path d="M8.3374 15.8752C6.44971 15.8752 4.91943 14.345 4.91943 12.4573C4.91943 10.5696 6.44971 9.03931 8.3374 9.03931C10.2251 9.03931 11.7554 10.5696 11.7554 12.4573C11.7554 14.345 10.2251 15.8752 8.3374 15.8752Z" fill="#7090C2"/>
</g>
<defs>
<clipPath id="clip0_85:24">
<rect width="25" height="25" fill="white" transform="matrix(-1 0 0 1 25 0)"/>
</clipPath>
</defs>
</svg>
