<svg width="25" height="25" viewBox="0 0 25 25" fill="none" xmlns="http://www.w3.org/2000/svg">
<path d="M12.485 25C19.3898 25.006 24.988 19.4198 25 12.515C25.012 5.61018 19.4138 0.0120067 12.515 1.9216e-05C5.61617 -0.0119683 0.0060141 5.5862 2.03442e-05 12.485C-0.00597341 15.8056 1.31265 18.9883 3.66221 21.3378C5.99977 23.6874 9.17646 25 12.485 25ZM12.485 1.28268C18.6945 1.27669 23.7353 6.31145 23.7413 12.521C23.7473 18.7305 18.7125 23.7713 12.503 23.7773C6.29346 23.7773 1.25272 18.7485 1.24672 12.539C1.24672 9.55407 2.42749 6.68906 4.54329 4.57326C6.6471 2.46345 9.50612 1.27669 12.485 1.28268Z" fill="#7090C2"/>
<g clip-path="url(#clip0_1222:2)">
<path d="M5.61583 19.4827C5.82198 18.7247 5.98268 18.0346 6.20181 17.3632C6.37306 16.8365 6.33735 16.4094 6.05004 15.8973C3.29951 10.9941 6.23022 5.01572 11.806 4.09915C16.1026 3.39291 20.3595 6.52932 20.9276 10.8202C21.5168 15.2728 18.6015 19.2044 14.1685 19.9042C12.3108 20.1979 10.5747 19.8031 8.94017 18.8897C8.75594 18.787 8.47837 18.7595 8.26897 18.8064C7.40624 19.0022 6.55324 19.24 5.61583 19.4827ZM15.5247 16.6359C16.1675 16.6642 16.7154 16.4337 17.221 16.0648C17.7558 15.6748 17.906 15.1183 17.9068 14.5051C17.9068 14.3853 17.8078 14.2074 17.7039 14.1548C17.0554 13.8247 16.3931 13.5221 15.7349 13.2123C15.5028 13.1031 15.3291 13.1654 15.1766 13.3725C14.9696 13.6548 14.7358 13.9177 14.5232 14.1952C14.3585 14.4096 14.1799 14.4452 13.9242 14.3392C12.7864 13.8684 11.8441 13.1557 11.1128 12.1639C10.526 11.367 10.5252 11.3719 11.1226 10.592C11.3109 10.3453 11.5008 10.0985 11.3498 9.74825C11.0934 9.15608 10.8588 8.55339 10.5983 7.96284C10.5366 7.82288 10.4319 7.66756 10.3045 7.59799C9.94737 7.40302 9.20475 7.56482 8.91095 7.86818C7.99627 8.81146 7.80636 10.0524 8.47431 11.3379C9.40035 13.1185 10.7168 14.5706 12.452 15.5996C13.3935 16.1578 14.408 16.5671 15.5247 16.6359Z" fill="#7090C2"/>
</g>
<defs>
<clipPath id="clip0_1222:2">
<rect width="16" height="16" fill="white" transform="translate(5 4)"/>
</clipPath>
</defs>
</svg>
