<svg width="18" height="23" viewBox="0 0 18 23" fill="none" xmlns="http://www.w3.org/2000/svg">
<path d="M4.75609 1.18142e-05C4.07622 1.18142e-05 3.51783 0.558784 3.51783 1.23824V4.13046H1.24149C0.561625 4.13046 0 4.69294 0 5.37281V21.5693C0 22.2492 0.561625 22.8109 1.24149 22.8109H13.2405C13.9203 22.8109 14.4822 22.2492 14.4822 21.5693V18.6771H16.7585C17.4384 18.6771 18 18.1183 18 17.4389V5.64063C18 5.53069 17.9562 5.42531 17.8781 5.34761L12.6492 0.118634C12.5711 0.0417617 12.4661 -0.00081477 12.3562 1.18142e-05H4.75609ZM4.75609 0.826596H11.8557V5.02152C11.8557 5.70139 12.4153 6.26056 13.0948 6.26056H17.1734V17.4389C17.1734 17.6749 16.9945 17.8505 16.7585 17.8505H14.4822V9.7752C14.4822 9.66526 14.4384 9.55988 14.3603 9.48218L9.13117 4.25321C9.05347 4.1751 8.9485 4.13087 8.83815 4.13046H4.34441V1.23824C4.34441 1.00225 4.5201 0.826596 4.75609 0.826596ZM12.6831 1.32462L16.7948 5.43316H13.0948C12.8588 5.43316 12.6831 5.25751 12.6831 5.02152V1.32462ZM1.24189 4.95786H3.85463C3.90506 4.96737 3.95678 4.96737 4.0072 4.95786H8.33809V9.15279C8.33809 9.83265 8.8977 10.3943 9.57716 10.3943H13.656V21.5693C13.656 21.8053 13.4771 21.9843 13.2411 21.9843H1.24189C1.0059 21.9843 0.826988 21.8053 0.826988 21.5693V5.37281C0.826988 5.13682 1.00549 4.95786 1.24189 4.95786ZM9.16507 5.45547L13.2778 9.56814H9.57675C9.34076 9.56814 9.16507 9.38918 9.16507 9.15319V5.45547Z" fill="#7090C2"/>
</svg>
