<svg width="25" height="25" viewBox="0 0 25 25" fill="none" xmlns="http://www.w3.org/2000/svg">
<path fill-rule="evenodd" clip-rule="evenodd" d="M12.5 25C19.4036 25 25 19.4036 25 12.5C25 5.59644 19.4036 0 12.5 0C5.59644 0 0 5.59644 0 12.5C0 19.4036 5.59644 25 12.5 25ZM12.5 23.5C18.5751 23.5 23.5 18.5751 23.5 12.5C23.5 6.42487 18.5751 1.5 12.5 1.5C6.42487 1.5 1.5 6.42487 1.5 12.5C1.5 18.5751 6.42487 23.5 12.5 23.5ZM13.4073 18V12.4994H15.0344L15.25 10.6038H13.4073L13.41 9.65506C13.41 9.16067 13.4604 8.89577 14.2213 8.89577H15.2385V7H13.6111C11.6564 7 10.9684 7.91955 10.9684 9.46594V10.604H9.75V12.4996H10.9684V18H13.4073Z" fill="#7090C2"/>
</svg>
