<svg width="25" height="25" viewBox="0 0 25 25" fill="none" xmlns="http://www.w3.org/2000/svg">
<path d="M12.485 25C19.3898 25.006 24.988 19.4198 25 12.515C25.012 5.61018 19.4138 0.0120067 12.515 1.9216e-05C5.61617 -0.0119683 0.0060141 5.5862 2.03442e-05 12.485C-0.00597341 15.8056 1.31265 18.9883 3.66221 21.3378C5.99977 23.6874 9.17646 25 12.485 25ZM12.485 1.28268C18.6945 1.27669 23.7353 6.31145 23.7413 12.521C23.7473 18.7305 18.7125 23.7713 12.503 23.7773C6.29346 23.7773 1.25272 18.7485 1.24672 12.539C1.24672 9.55407 2.42749 6.68906 4.54329 4.57326C6.6471 2.46345 9.50612 1.27669 12.485 1.28268Z" fill="#7090C2"/>
<path d="M6.74303 16.2311C7.83389 16.9324 9.10457 17.304 10.3992 17.304C11.4002 17.31 12.3951 17.1002 13.3062 16.6806C14.5109 16.1172 15.5179 15.1942 16.1952 14.0434C16.8305 12.9765 17.1722 11.7598 17.1842 10.5131C17.1842 10.4471 17.1842 10.3812 17.1842 10.3153C17.6157 9.98562 17.9933 9.59003 18.299 9.13451C18.3649 9.03861 18.335 8.90674 18.2391 8.84081C18.1791 8.79885 18.1012 8.79286 18.0353 8.82283C17.8734 8.89475 17.7116 8.95469 17.5438 9.00264C17.7536 8.7569 17.9094 8.4692 18.0053 8.16352C18.0413 8.05563 17.9813 7.93575 17.8674 7.89979C17.8075 7.88181 17.7476 7.8878 17.6936 7.91777C17.292 8.15752 16.8545 8.32535 16.399 8.42724C15.398 7.45625 13.8037 7.48622 12.8327 8.48718C12.3772 8.95469 12.1254 9.58404 12.1254 10.2434C12.1254 10.3452 12.1314 10.4411 12.1434 10.543C10.4412 10.3872 8.87681 9.55407 7.79793 8.22345C7.72601 8.13355 7.59414 8.12156 7.50424 8.19348C7.48626 8.21147 7.46828 8.22945 7.45629 8.25342C6.93483 9.15249 7.01275 10.2793 7.66607 11.0885C7.57616 11.0525 7.49225 11.0165 7.40834 10.9686C7.30644 10.9147 7.18058 10.9506 7.12064 11.0525C7.10266 11.0825 7.09666 11.1124 7.09666 11.1484C7.09666 11.1664 7.09666 11.1724 7.09666 11.1844C7.09666 12.0355 7.52821 12.8327 8.24746 13.3002C8.2175 13.2942 8.18753 13.2882 8.15756 13.2822C8.04368 13.2582 7.93579 13.3361 7.91181 13.45C7.90582 13.486 7.90582 13.5219 7.91781 13.5519C8.18153 14.385 8.86482 15.0204 9.70994 15.2302C8.85883 15.7456 7.86386 15.9614 6.88089 15.8415C6.76701 15.8295 6.65912 15.9075 6.64713 16.0273C6.64114 16.1052 6.6771 16.1832 6.74303 16.2311Z" fill="#7090C2"/>
</svg>
