<svg width="20" height="22" viewBox="0 0 20 22" fill="none" xmlns="http://www.w3.org/2000/svg">
<path d="M17.4176 22H1.81722C1.56388 22 1.35889 21.7948 1.35889 21.5417V10.4146C1.35889 10.1614 1.56388 9.95622 1.81722 9.95622H17.4176C17.6709 9.95622 17.8759 10.1614 17.8759 10.4146V21.5417C17.8759 21.7948 17.6709 22 17.4176 22ZM2.27555 21.0833H16.9592V10.8729H2.27555V21.0833Z" fill="#7090C2"/>
<path d="M18.7764 22H0.458333C0.204997 22 0 21.7948 0 21.5417C0 21.2885 0.204997 21.0833 0.458333 21.0833H18.7764C19.0298 21.0833 19.2348 21.2885 19.2348 21.5417C19.2348 21.7948 19.0298 22 18.7764 22Z" fill="#7090C2"/>
<path d="M18.7764 10.8729H0.458333C0.204997 10.8729 0 10.6677 0 10.4146C0 10.1614 0.204997 9.95622 0.458333 9.95622H18.7764C19.0298 9.95622 19.2348 10.1614 19.2348 10.4146C19.2348 10.6677 19.0298 10.8729 18.7764 10.8729Z" fill="#7090C2"/>
<path d="M16.5784 10.8729H8.81942C8.56608 10.8729 8.36108 10.6677 8.36108 10.4146V9.4849C8.36108 7.57078 10.3072 6.01361 12.6991 6.01361C15.0911 6.01361 17.0367 7.57078 17.0367 9.4849V10.4146C17.0367 10.6677 16.8317 10.8729 16.5784 10.8729ZM9.27775 9.95622H16.1201V9.4849C16.1201 8.07633 14.5853 6.93028 12.6991 6.93028C10.8125 6.93028 9.27775 8.07633 9.27775 9.4849V9.95622Z" fill="#7090C2"/>
<path d="M12.6992 4.80243C11.3752 4.80243 10.2979 3.7253 10.2979 2.4011C10.2979 1.07713 11.3752 0 12.6992 0C14.0232 0 15.1001 1.07713 15.1001 2.4011C15.1001 3.7253 14.0232 4.80243 12.6992 4.80243ZM12.6992 0.916667C11.8805 0.916667 11.2145 1.58268 11.2145 2.4011C11.2145 3.21975 11.8805 3.88576 12.6992 3.88576C13.5174 3.88576 14.1834 3.21975 14.1834 2.4011C14.1834 1.58268 13.5174 0.916667 12.6992 0.916667Z" fill="#7090C2"/>
<path d="M3.03695 10.8729C2.78361 10.8729 2.57861 10.6677 2.57861 10.4146V8.18354C2.57861 8.02957 2.65605 7.88589 2.78451 7.80108L5.37516 6.08949C5.58464 5.95006 5.86975 6.00758 6.00985 6.21929C6.1495 6.43055 6.09131 6.71477 5.88005 6.85442L3.49528 8.43017V10.4146C3.49528 10.6677 3.29028 10.8729 3.03695 10.8729Z" fill="#7090C2"/>
</svg>
