<svg width="25" height="25" viewBox="0 0 25 25" fill="none" xmlns="http://www.w3.org/2000/svg">
<path d="M12.485 25C19.3898 25.006 24.988 19.4198 25 12.515C25.012 5.61018 19.4138 0.0120067 12.515 1.9216e-05C5.61617 -0.0119683 0.0060141 5.5862 2.03442e-05 12.485C-0.00597341 15.8056 1.31265 18.9883 3.66221 21.3378C5.99977 23.6874 9.17646 25 12.485 25ZM12.485 1.28268C18.6945 1.27669 23.7353 6.31145 23.7413 12.521C23.7473 18.7305 18.7125 23.7713 12.503 23.7773C6.29346 23.7773 1.25272 18.7485 1.24672 12.539C1.24672 9.55407 2.42749 6.68906 4.54329 4.57326C6.6471 2.46345 9.50612 1.27669 12.485 1.28268Z" fill="#7090C2"/>
<path d="M12 9C11.0111 9 10.0444 9.29324 9.22215 9.84265C8.3999 10.3921 7.75904 11.173 7.3806 12.0866C7.00217 13.0002 6.90315 14.0055 7.09608 14.9755C7.289 15.9454 7.76521 16.8363 8.46447 17.5355C9.16373 18.2348 10.0546 18.711 11.0245 18.9039C11.9945 19.0969 12.9998 18.9978 13.9134 18.6194C14.827 18.241 15.6079 17.6001 16.1573 16.7778C16.7068 15.9556 17 14.9889 17 14C17 12.6739 16.4732 11.4021 15.5355 10.4645C14.5979 9.52678 13.3261 9 12 9ZM12 17.3333C11.3407 17.3333 10.6963 17.1378 10.1481 16.7716C9.59994 16.4053 9.1727 15.8847 8.9204 15.2756C8.66811 14.6665 8.6021 13.9963 8.73072 13.3497C8.85933 12.7031 9.1768 12.1092 9.64298 11.643C10.1092 11.1768 10.7031 10.8593 11.3497 10.7307C11.9963 10.6021 12.6665 10.6681 13.2756 10.9204C13.8847 11.1727 14.4053 11.5999 14.7716 12.1481C15.1378 12.6963 15.3333 13.3407 15.3333 14C15.3333 14.8841 14.9821 15.7319 14.357 16.357C13.7319 16.9821 12.8841 17.3333 12 17.3333Z" fill="#7090C2"/>
<path d="M17.5 10C18.3284 10 19 9.32843 19 8.5C19 7.67157 18.3284 7 17.5 7C16.6716 7 16 7.67157 16 8.5C16 9.32843 16.6716 10 17.5 10Z" fill="#7090C2"/>
</svg>
