<svg width="24" height="24" viewBox="0 0 24 24" fill="none" xmlns="http://www.w3.org/2000/svg">
<path d="M21.8667 20.8C21.8667 21.3926 21.3926 21.8667 20.8 21.8667H3.2C2.60741 21.8667 2.13333 21.3926 2.13333 20.8V3.2C2.13333 2.60741 2.60741 2.13333 3.2 2.13333H10.1333V0H3.2C1.42222 0 0 1.42222 0 3.2V20.8C0 22.5778 1.42222 24 3.2 24H20.8C22.5778 24 24 22.5778 24 20.8V13.8667H21.8667V20.8Z" fill="#47C77D"/>
<path d="M13.8668 0V2.13333H20.3556L11.9705 10.5185L13.4816 12.0296L21.8668 3.64444V10.1333H24.0001V0H13.8668Z" fill="#47C77D"/>
</svg>
