<svg width="20" height="22" viewBox="0 0 20 22" fill="none" xmlns="http://www.w3.org/2000/svg">
<path fill-rule="evenodd" clip-rule="evenodd" d="M2.16912 20.1667H3.27206V1.1H16.7647V20.1667H17.8676V0.55C17.8676 0.256667 17.6103 0 17.3162 0H2.72059C2.42647 0 2.16912 0.256667 2.16912 0.55V20.1667ZM19.4485 22C19.7426 22 20 21.7433 20 21.45C20 21.1567 19.7426 20.9 19.4485 20.9H0.551471C0.257353 20.9 0 21.1567 0 21.45C0 21.7433 0.257353 22 0.551471 22H19.4485Z" fill="#7090C2"/>
<path d="M5 16L8 9L11.5 11.5L15 4.5" stroke="#7090C2"/>
</svg>
