<svg width="12" height="22" viewBox="0 0 12 22" fill="none" xmlns="http://www.w3.org/2000/svg">
<path fill-rule="evenodd" clip-rule="evenodd" d="M11.7333 1.55833C11.7333 0.698041 11.046 0 10.199 0H1.53436C0.687302 0 0 0.698041 0 1.55833V20.4417C0 21.302 0.687302 22 1.53436 22H10.199C11.046 22 11.7333 21.302 11.7333 20.4417V1.55833ZM10.8308 1.55833V20.4417C10.8308 20.796 10.5478 21.0833 10.199 21.0833H1.53436C1.18552 21.0833 0.902564 20.796 0.902564 20.4417V1.55833C0.902564 1.20404 1.18552 0.916667 1.53436 0.916667H10.199C10.5478 0.916667 10.8308 1.20404 10.8308 1.55833Z" fill="#809CC8"/>
<path fill-rule="evenodd" clip-rule="evenodd" d="M5.5733 20.5333H6.8933C7.13618 20.5333 7.3333 20.2048 7.3333 19.8C7.3333 19.3952 7.13618 19.0667 6.8933 19.0667H5.5733C5.33042 19.0667 5.1333 19.3952 5.1333 19.8C5.1333 20.2048 5.33042 20.5333 5.5733 20.5333Z" fill="#809CC8"/>
</svg>
