<svg width="25" height="25" viewBox="0 0 25 25" fill="none" xmlns="http://www.w3.org/2000/svg">
<path d="M18.3234 17.8234V13.6359C18.3234 11.3922 17.1258 10.3484 15.5289 10.3484C14.2406 10.3484 13.6633 11.057 13.3414 11.5547V10.5203H10.9141C10.9461 11.2055 10.9141 17.8234 10.9141 17.8234H13.3414V13.7445C13.3414 13.5266 13.357 13.3086 13.4219 13.1531C13.5969 12.7172 13.9961 12.2656 14.6664 12.2656C15.5453 12.2656 15.8961 12.9352 15.8961 13.9164V17.8234H18.3234ZM8.35703 9.52344C9.20312 9.52344 9.73047 8.9625 9.73047 8.26094C9.71484 7.54453 9.20312 7 8.37266 7C7.54219 7 7 7.54453 7 8.26094C7 8.96172 7.52734 9.52344 8.34141 9.52344H8.35703ZM9.57031 17.8234V10.5203H7.14375V17.8234H9.57031Z" fill="#7090C2"/>
<path d="M12.485 25C19.3898 25.006 24.988 19.4198 25 12.515C25.012 5.61018 19.4138 0.0120067 12.515 1.9216e-05C5.61617 -0.0119683 0.0060141 5.5862 2.03442e-05 12.485C-0.00597341 15.8056 1.31265 18.9883 3.66221 21.3378C5.99977 23.6874 9.17646 25 12.485 25ZM12.485 1.28268C18.6945 1.27669 23.7353 6.31145 23.7413 12.521C23.7473 18.7305 18.7125 23.7713 12.503 23.7773C6.29346 23.7773 1.25272 18.7485 1.24672 12.539C1.24672 9.55407 2.42749 6.68906 4.54329 4.57326C6.6471 2.46345 9.50612 1.27669 12.485 1.28268Z" fill="#7090C2"/>
</svg>
