<svg width="25" height="25" viewBox="0 0 25 25" fill="none" xmlns="http://www.w3.org/2000/svg">
<path d="M12.485 25C19.3898 25.006 24.988 19.4198 25 12.515C25.012 5.61018 19.4138 0.0120067 12.515 1.9216e-05C5.61617 -0.0119683 0.0060141 5.5862 2.03442e-05 12.485C-0.00597341 15.8056 1.31265 18.9883 3.66221 21.3378C5.99977 23.6874 9.17646 25 12.485 25ZM12.485 1.28268C18.6945 1.27669 23.7353 6.31145 23.7413 12.521C23.7473 18.7305 18.7125 23.7713 12.503 23.7773C6.29346 23.7773 1.25272 18.7485 1.24672 12.539C1.24672 9.55407 2.42749 6.68906 4.54329 4.57326C6.6471 2.46345 9.50612 1.27669 12.485 1.28268Z" fill="#7090C2"/>
<g clip-path="url(#clip0_904:3)">
<path d="M11.5985 11.3866C11.5985 12.0608 11.5985 12.7135 11.5985 13.3177C11.1999 13.3406 10.8112 13.3094 10.4534 13.3947C9.57005 13.6062 9.01292 14.4088 9.071 15.3001C9.12549 16.1332 9.79879 16.8462 10.6635 16.9864C11.5412 17.1286 12.416 16.661 12.7393 15.8523C12.8189 15.6539 12.8562 15.4271 12.8569 15.2127C12.8648 12.6129 12.8619 10.0125 12.8619 7.41272C12.8619 7.27607 12.8619 7.13942 12.8619 7C13.5553 7 14.2171 7 14.8747 7C15.0374 8.93942 15.9473 9.99792 18.0016 10.0492C18.0016 10.7235 18.0016 11.3984 18.0016 12.1101C16.9031 12.1558 15.9036 11.8714 14.9284 11.3339C14.9148 11.449 14.8962 11.5323 14.8969 11.6155C14.9076 12.7704 14.9084 13.926 14.9356 15.0802C14.9836 17.1403 13.3079 18.8814 11.1518 18.9938C9.03013 19.104 7.20313 17.5316 7.01527 15.4333C6.83816 13.4509 8.38623 11.6169 10.4513 11.3706C10.6872 11.3422 10.9274 11.3366 11.1655 11.336C11.3053 11.336 11.4458 11.3679 11.5985 11.3866Z" fill="#7090C2"/>
</g>
<defs>
<clipPath id="clip0_904:3">
<rect width="11" height="12" fill="white" transform="translate(7 7)"/>
</clipPath>
</defs>
</svg>
